# xmcd CD database file
# Generated: Sat Dec 17 21:34:10 2005 by KSCD
# 
# Track frame offsets:
#       150
#       11167
#       24711
#       41323
#       56100
#       75385
#       89555
#       101294
#       115098
#       125993
#       141303
#       156790
#       171023
#
# Disc length: 2418 seconds
#
# Revision: 2
# Processed by: cddbd v1.5.1PL2 Copyright (c) Steve Scherf et al.
# Submitted via: Kscd 1.3.3
#
DISCID=a809700d
DTITLE=Johnny Young - One More Time
DYEAR=1900
DGENRE=
TTITLE0=Chicago The Blues Today
TTITLE1=
TTITLE2=
TTITLE3=
TTITLE4=
TTITLE5=
TTITLE6=
TTITLE7=
TTITLE8=
TTITLE9=
TTITLE10=
TTITLE11=
TTITLE12=
EXTD=
EXTT0=
EXTT1=
EXTT2=
EXTT3=
EXTT4=
EXTT5=
EXTT6=
EXTT7=
EXTT8=
EXTT9=
EXTT10=
EXTT11=
EXTT12=
PLAYORDER=
